<?xml version="1.0" standalone="no"?>
<!DOCTYPE svg PUBLIC "-//W3C//DTD SVG 20010904//EN"
 "http://www.w3.org/TR/2001/REC-SVG-20010904/DTD/svg10.dtd">
<svg version="1.0" xmlns="http://www.w3.org/2000/svg"
 width="270.000000pt" height="270.000000pt" viewBox="0 0 270.000000 270.000000"
 preserveAspectRatio="xMidYMid meet">
<metadata>
Created by potrace 1.14, written by Peter Selinger 2001-2017
</metadata>
<g transform="translate(0.000000,270.000000) scale(0.100000,-0.100000)"
fill="#000000" stroke="none">
<path d="M0 1350 l0 -1350 1350 0 1350 0 0 1350 0 1350 -1350 0 -1350 0 0
-1350z m900 662 c0 -17 178 -673 185 -680 2 -2 6 5 9 15 2 10 46 156 95 324
50 168 91 318 91 332 l0 27 450 0 450 0 0 -92 0 -93 -125 3 -125 4 0 -449 1
-448 -186 0 -186 0 1 448 0 447 -79 0 -80 0 -25 -82 c-19 -63 -213 -738 -232
-805 -2 -10 -42 -13 -156 -13 l-153 0 -48 173 c-45 162 -241 852 -254 890 -5
16 8 17 181 17 171 0 186 -1 186 -18z m1175 -1242 c175 -11 473 -38 492 -45 9
-3 5 -22 -14 -67 -32 -75 -41 -88 -56 -83 -26 9 -254 45 -404 64 -655 83
-1147 73 -1787 -34 -82 -14 -151 -24 -153 -22 -5 6 291 81 432 111 196 40 414
69 680 90 82 6 638 -3 810 -14z"/>
</g>
</svg>
